<svg width="21" height="21" viewBox="0 0 21 21" fill="none" xmlns="http://www.w3.org/2000/svg">
<path opacity="0.4" d="M21 1.875C21 0.839062 20.1609 0 19.125 0H13.875C12.8391 0 12 0.839062 12 1.875V7.125C12 8.16094 12.8391 9 13.875 9H19.125C20.1609 9 21 8.16094 21 7.125V1.875ZM9 13.875C9 12.8391 8.16094 12 7.125 12H1.875C0.839062 12 0 12.8391 0 13.875V19.125C0 20.1609 0.839062 21 1.875 21H7.125C8.16094 21 9 20.1609 9 19.125V13.875Z" fill="#011C47"/>
<path d="M9 2.25C9 1.00781 7.99219 0 6.75 0H2.25C1.00781 0 0 1.00781 0 2.25V6.75C0 7.99219 1.00781 9 2.25 9H6.75C7.99219 9 9 7.99219 9 6.75V2.25ZM21 14.25C21 13.0078 19.9922 12 18.75 12H14.25C13.0078 12 12 13.0078 12 14.25V18.75C12 19.9922 13.0078 21 14.25 21H18.75C19.9922 21 21 19.9922 21 18.75V14.25Z" fill="#011C47"/>
</svg>
