<svg width="14" height="18" viewBox="0 0 14 18" fill="none" xmlns="http://www.w3.org/2000/svg">
<path opacity="0.4" d="M7.37537 17.0625C9.12945 14.8682 13.13 9.5498 13.13 6.5625C13.13 2.93945 10.1894 0 6.565 0C2.94057 0 0 2.93945 0 6.5625C0 9.5498 4.00055 14.8682 5.75463 17.0625C6.1752 17.5854 6.9548 17.5854 7.37537 17.0625ZM6.565 3.82812C7.29048 3.82812 7.98624 4.11621 8.49923 4.629C9.01222 5.1418 9.30042 5.8373 9.30042 6.5625C9.30042 7.2877 9.01222 7.9832 8.49923 8.496C7.98624 9.00879 7.29048 9.29688 6.565 9.29688C5.83952 9.29688 5.14376 9.00879 4.63077 8.496C4.11778 7.9832 3.82958 7.2877 3.82958 6.5625C3.82958 5.8373 4.11778 5.1418 4.63077 4.629C5.14376 4.11621 5.83952 3.82812 6.565 3.82812Z" fill="#6682A9"/>
<path d="M6.56508 4.92188C6.12979 4.92188 5.71233 5.09473 5.40454 5.4024C5.09674 5.71008 4.92383 6.12738 4.92383 6.5625C4.92383 6.99762 5.09674 7.41492 5.40454 7.7226C5.71233 8.03027 6.12979 8.20312 6.56508 8.20312C7.00036 8.20312 7.41782 8.03027 7.72562 7.7226C8.03341 7.41492 8.20633 6.99762 8.20633 6.5625C8.20633 6.12738 8.03341 5.71008 7.72562 5.4024C7.41782 5.09473 7.00036 4.92188 6.56508 4.92188Z" fill="#6682A9"/>
</svg>
