<svg width="18" height="18" viewBox="0 0 18 18" fill="none" xmlns="http://www.w3.org/2000/svg">
<path d="M2.33789 0.503212L1.00488 0.865517C0.413574 1.02958 0 1.56962 0 2.18485C0 10.6409 6.85645 17.4974 15.3125 17.4974C15.9277 17.4974 16.4678 17.0838 16.6318 16.4891L16.9941 15.156C9.33789 14.2298 3.26758 8.15946 2.33789 0.503212ZM17.2847 14.0896L17.4521 13.4812C17.6333 12.8182 17.2949 12.1243 16.6592 11.8611L13.3779 10.4939C12.8208 10.2615 12.1748 10.4222 11.7954 10.8904L10.9375 11.9397C12.8311 13.0813 14.9844 13.8333 17.2881 14.0896H17.2847ZM5.55762 6.56327L6.60693 5.70536C7.0752 5.32255 7.23584 4.67997 7.00342 4.12284L5.63623 0.841591C5.37305 0.205849 4.6792 -0.13253 4.01611 0.0486222L3.40771 0.212685C3.66406 2.5164 4.41602 4.66972 5.55762 6.56327Z" fill="#6682A9"/>
</svg>
